<svg xmlns="http://www.w3.org/2000/svg" width="152" height="125" viewBox="0 0 152 125" fill="none">
  <path d="M65.3836 1.49321V112.447C65.3841 112.662 65.3418 112.874 65.2591 113.073C65.1765 113.271 65.0551 113.451 64.9022 113.602C64.7492 113.753 64.5677 113.872 64.3683 113.951C64.1688 114.031 63.9555 114.071 63.7407 114.067H12.096C11.9049 114.07 11.7151 114.035 11.5377 113.964C11.3604 113.892 11.199 113.786 11.0631 113.652C10.9228 113.509 10.8124 113.34 10.7385 113.155C10.6646 112.969 10.6287 112.77 10.6328 112.57V1.35848C10.6263 1.18644 10.6537 1.01481 10.7136 0.853396C10.7735 0.691983 10.8646 0.543958 10.9817 0.417787C11.0989 0.291616 11.2397 0.189776 11.3963 0.118088C11.5528 0.0464006 11.7219 0.00627147 11.894 0H26.5565C26.7635 0.00535271 26.9641 0.0723104 27.1327 0.192309C27.3014 0.312308 27.4305 0.479893 27.5034 0.673627L28.1096 2.17057C28.1848 2.36051 28.3144 2.524 28.4822 2.64052C28.65 2.75704 28.8485 2.82139 29.0527 2.82549H46.9973C47.2024 2.82311 47.4022 2.7595 47.5709 2.64281C47.7396 2.52611 47.8696 2.36167 47.9441 2.17057L48.5504 0.673627C48.624 0.482004 48.753 0.316653 48.921 0.198673C49.0889 0.080693 49.2883 0.0154357 49.4935 0.0112295H63.9465C64.3305 0.0265843 64.6938 0.189013 64.9613 0.464886C65.2289 0.740759 65.38 1.10894 65.3836 1.49321Z" fill="#407BFF" fill-opacity="0.8"/>
  <path opacity="0.6" d="M17.4407 4.47168H18.2041V3.45376H17.4407V4.47168Z" fill="white" fill-opacity="0.8"/>
  <path opacity="0.6" d="M16.1975 4.46777H16.9609V3.11304H16.1975V4.46777Z" fill="white" fill-opacity="0.8"/>
  <path opacity="0.6" d="M14.9514 4.46777H15.7148V2.77248H14.9514V4.46777Z" fill="white" fill-opacity="0.8"/>
  <path opacity="0.6" d="M13.7121 4.47168H14.4756V2.43583H13.7121V4.47168Z" fill="white" fill-opacity="0.8"/>
  <path opacity="0.6" d="M58.3981 3.08008H57.9453V4.098H58.3981V3.08008Z" fill="white" fill-opacity="0.8"/>
  <path opacity="0.6" d="M58.7047 4.46777H62.3086V2.70886L58.7047 2.70886V4.46777Z" fill="white" fill-opacity="0.8"/>
  <g opacity="0.1">
    <path d="M35.266 2.80677L19.5032 61.8501L19.3273 62.5125L19.0429 63.5753L18.867 64.2377L10.6338 95.0673V57.7559L26.0561 0H26.5575C26.7646 0.00485207 26.9655 0.0716158 27.1342 0.191681C27.303 0.311746 27.4319 0.479609 27.5044 0.673627L28.1106 2.17057C28.1851 2.36067 28.3147 2.5242 28.4827 2.64021C28.6507 2.75622 28.8495 2.81943 29.0537 2.82174L35.266 2.80677Z" fill="white" fill-opacity="0.8"/>
    <path d="M65.3857 32.959V70.2704L55.5545 107.095L55.315 107.99L53.6946 114.067H43.7324L45.3529 107.993L45.6148 107.02L46.9172 102.14L47.1754 101.164L47.6993 99.2138L47.9576 98.237L48.4777 96.2873L48.7397 95.3105L56.9317 64.6194V64.6156L57.3135 63.1973V63.1935L65.3857 32.959Z" fill="white" fill-opacity="0.8"/>
    <path d="M40.6646 2.80664L24.9991 61.4794L24.9055 61.8312L24.0485 65.0422L23.9699 65.4164L11.0738 113.652C10.9302 113.511 10.8169 113.343 10.741 113.157C10.665 112.971 10.628 112.771 10.6322 112.57V106.904L21.7245 65.4164L21.8181 65.0646L22.6751 61.8499L22.7724 61.4981L38.4229 2.80664H40.6646Z" fill="white" fill-opacity="0.8"/>
  </g>
  <path opacity="0.3" d="M65.3846 7.23438H10.6338V109.158H65.3846V7.23438Z" fill="white" fill-opacity="0.8"/>
  <path opacity="0.6" d="M62.37 17.0654H13.708V47.895H62.37V17.0654Z" fill="black" fill-opacity="0.8"/>
  <path opacity="0.5" d="M62.37 46.8955H13.708V47.891H62.37V46.8955Z" fill="black" fill-opacity="0.8"/>
  <path opacity="0.6" d="M30.5674 46.8955H13.708V47.891H30.5674V46.8955Z" fill="white" fill-opacity="0.8"/>
  <path d="M31.8632 47.4267C31.8632 47.6608 31.7938 47.8896 31.6637 48.0841C31.5335 48.2787 31.3486 48.4303 31.1323 48.5197C30.916 48.609 30.678 48.6323 30.4485 48.5863C30.219 48.5404 30.0083 48.4274 29.8431 48.2616C29.6779 48.0959 29.5655 47.8848 29.5203 47.6551C29.4751 47.4255 29.4991 47.1876 29.5891 46.9716C29.6792 46.7556 29.8314 46.5711 30.0264 46.4416C30.2213 46.3121 30.4503 46.2434 30.6844 46.2441C30.8395 46.2441 30.9931 46.2748 31.1364 46.3342C31.2796 46.3937 31.4098 46.4809 31.5193 46.5907C31.6288 46.7006 31.7155 46.831 31.7746 46.9745C31.8336 47.1179 31.8637 47.2716 31.8632 47.4267Z" fill="white" fill-opacity="0.8"/>
  <path opacity="0.6" d="M38.6284 53.3477H14.6137C14.1135 53.3477 13.708 53.7531 13.708 54.2533V54.3094C13.708 54.8096 14.1135 55.2151 14.6137 55.2151H38.6284C39.1286 55.2151 39.5341 54.8096 39.5341 54.3094V54.2533C39.5341 53.7531 39.1286 53.3477 38.6284 53.3477Z" fill="white" fill-opacity="0.8"/>
  <path opacity="0.6" d="M44.0249 50.4541H14.6137C14.1135 50.4541 13.708 50.8596 13.708 51.3598V51.4159C13.708 51.9161 14.1135 52.3215 14.6137 52.3215H44.0249C44.5251 52.3215 44.9305 51.9161 44.9305 51.4159V51.3598C44.9305 50.8596 44.5251 50.4541 44.0249 50.4541Z" fill="white" fill-opacity="0.8"/>
  <path opacity="0.4" d="M57.5801 50.4541L59.5224 52.3964L61.4609 50.4541H57.5801Z" fill="white" fill-opacity="0.8"/>
  <path opacity="0.4" d="M62.37 60.3496H13.708V81.4977H62.37V60.3496Z" fill="white" fill-opacity="0.8"/>
  <path opacity="0.5" d="M46.3046 62.3408H42.4387C41.9861 62.3408 41.6191 62.7078 41.6191 63.1604V63.2091C41.6191 63.6617 41.9861 64.0286 42.4387 64.0286H46.3046C46.7572 64.0286 47.1242 63.6617 47.1242 63.2091V63.1604C47.1242 62.7078 46.7572 62.3408 46.3046 62.3408Z" fill="white" fill-opacity="0.8"/>
  <path opacity="0.5" d="M57.0938 65.0576H42.4387C41.9861 65.0576 41.6191 65.4246 41.6191 65.8772V65.9258C41.6191 66.3785 41.9861 66.7454 42.4387 66.7454H57.0938C57.5465 66.7454 57.9134 66.3785 57.9134 65.9258V65.8772C57.9134 65.4246 57.5465 65.0576 57.0938 65.0576Z" fill="white" fill-opacity="0.8"/>
  <path opacity="0.3" d="M38.1205 62.3408H16.0068V79.507H38.1205V62.3408Z" fill="black" fill-opacity="0.8"/>
  <path opacity="0.4" d="M62.37 84.2373H13.708V105.385H62.37V84.2373Z" fill="white" fill-opacity="0.8"/>
  <path opacity="0.5" d="M46.3046 86.2285H42.4387C41.9861 86.2285 41.6191 86.5955 41.6191 87.0481V87.0967C41.6191 87.5494 41.9861 87.9163 42.4387 87.9163H46.3046C46.7572 87.9163 47.1242 87.5494 47.1242 87.0967V87.0481C47.1242 86.5955 46.7572 86.2285 46.3046 86.2285Z" fill="white" fill-opacity="0.8"/>
  <path opacity="0.5" d="M57.0938 88.9482H42.4387C41.9861 88.9482 41.6191 89.3152 41.6191 89.7678V89.8165C41.6191 90.2691 41.9861 90.6361 42.4387 90.6361H57.0938C57.5465 90.6361 57.9134 90.2691 57.9134 89.8165V89.7678C57.9134 89.3152 57.5465 88.9482 57.0938 88.9482Z" fill="white" fill-opacity="0.8"/>
  <path opacity="0.3" d="M38.1205 86.2285H16.0068V103.395H38.1205V86.2285Z" fill="black" fill-opacity="0.8"/>
  <path d="M61.9363 14.8915L60.2073 13.3983L58.4746 14.8915V10.7861H61.9363V14.8915Z" fill="#407BFF" fill-opacity="0.8"/>
  <path d="M55.6899 10.7783H53.0703C52.8989 10.7793 52.7348 10.8478 52.6136 10.969C52.4924 11.0902 52.4238 11.2543 52.4229 11.4258V13.2071C52.4238 13.3785 52.4924 13.5426 52.6136 13.6638C52.7348 13.785 52.8989 13.8536 53.0703 13.8545H53.9572V14.8949L54.6271 13.8658H55.675C55.8467 13.8658 56.0114 13.7976 56.1328 13.6761C56.2542 13.5547 56.3224 13.39 56.3224 13.2183V11.437C56.3254 11.2659 56.2606 11.1006 56.1421 10.9772C56.0235 10.8537 55.861 10.7823 55.6899 10.7783Z" fill="#407BFF" fill-opacity="0.8"/>
  <path d="M50.4696 11.276C49.9868 10.4864 49.0587 10.7858 48.5759 11.392C48.1007 10.7783 47.1763 10.4714 46.6861 11.2573C45.859 12.5784 47.5393 13.8208 48.3327 14.3073L48.5572 14.4458L48.7855 14.3111C49.5864 13.8321 51.2892 12.6121 50.4696 11.276Z" fill="#407BFF" fill-opacity="0.8"/>
  <path d="M31.1437 13.6787H14.6137C14.1135 13.6787 13.708 14.0842 13.708 14.5844V14.6405C13.708 15.1407 14.1135 15.5461 14.6137 15.5461H31.1437C31.6439 15.5461 32.0493 15.1407 32.0493 14.6405V14.5844C32.0493 14.0842 31.6439 13.6787 31.1437 13.6787Z" fill="#407BFF" fill-opacity="0.8"/>
  <path d="M36.5402 10.7861H14.6137C14.1135 10.7861 13.708 11.1916 13.708 11.6918V11.7479C13.708 12.2481 14.1135 12.6536 14.6137 12.6536H36.5402C37.0403 12.6536 37.4458 12.2481 37.4458 11.7479V11.6918C37.4458 11.1916 37.0403 10.7861 36.5402 10.7861Z" fill="#407BFF" fill-opacity="0.8"/>
  <path d="M10.124 113.318C10.124 113.318 8.00959 108.704 10.4234 104.157C12.8372 99.6097 13.5408 98.5431 12.0027 97.6075C10.4646 96.672 9.75727 101.245 9.75727 101.245C9.75727 101.245 8.45867 98.1015 9.53273 94.812C10.6068 91.5225 11.2767 86.1634 9.81341 85.5908C8.35014 85.0182 9.53273 92.2747 8.26407 94.7484C7.61719 93.0112 7.19952 91.1971 7.0216 89.3519C6.84571 86.7098 7.1189 82.4884 5.96251 81.4069C4.80612 80.3253 4.06888 81.0738 5.21404 86.9044C5.89665 90.3888 6.27233 93.9265 6.33675 97.4766C6.33675 97.4766 3.82937 89.8272 2.1453 89.6176C0.46124 89.408 0.464983 91.863 1.90579 94.0224C3.3466 96.1817 6.12718 100.01 6.58375 102.001C6.58375 102.001 3.82937 96.2453 1.34444 98.008C-1.14049 99.7706 3.50004 103.247 5.56582 104.505C7.63161 105.762 9.06493 113.636 9.06493 113.636L10.124 113.318Z" fill="#407BFF" fill-opacity="0.8"/>
  <path opacity="0.2" d="M10.124 113.318C10.124 113.318 8.00959 108.704 10.4234 104.157C12.8372 99.6097 13.5408 98.5431 12.0027 97.6075C10.4646 96.672 9.75727 101.245 9.75727 101.245C9.75727 101.245 8.45867 98.1015 9.53273 94.812C10.6068 91.5225 11.2767 86.1634 9.81341 85.5908C8.35014 85.0182 9.53273 92.2747 8.26407 94.7484C7.61719 93.0112 7.19952 91.1971 7.0216 89.3519C6.84571 86.7098 7.1189 82.4884 5.96251 81.4069C4.80612 80.3253 4.06888 81.0738 5.21404 86.9044C5.89665 90.3888 6.27233 93.9265 6.33675 97.4766C6.33675 97.4766 3.82937 89.8272 2.1453 89.6176C0.46124 89.408 0.464983 91.863 1.90579 94.0224C3.3466 96.1817 6.12718 100.01 6.58375 102.001C6.58375 102.001 3.82937 96.2453 1.34444 98.008C-1.14049 99.7706 3.50004 103.247 5.56582 104.505C7.63161 105.762 9.06493 113.636 9.06493 113.636L10.124 113.318Z" fill="black" fill-opacity="0.8"/>
  <path d="M8.46685 115.189C8.46685 115.189 10.5252 110.549 8.05519 106.036C5.58523 101.522 4.87418 100.463 6.40107 99.509C7.92795 98.5547 8.69139 103.113 8.69139 103.113C8.69139 103.113 9.95257 99.9506 8.84109 96.6797C7.7296 93.4089 6.99236 88.0723 8.46685 87.4623C9.94134 86.8523 8.84109 94.1387 10.1285 96.5937C10.7539 94.8487 11.1489 93.0295 11.3036 91.1822C11.4495 88.5364 11.1239 84.3225 12.2654 83.2222C13.4068 82.1219 14.159 82.848 13.0924 88.7085C12.451 92.2016 12.1167 95.7442 12.0932 99.2957C12.0932 99.2957 14.507 91.6088 16.2098 91.3618C17.9126 91.1148 17.9163 93.5885 16.5017 95.7591C15.0871 97.9297 12.314 101.829 11.8836 103.816C11.8836 103.816 14.5669 98.0195 17.0668 99.7485C19.5667 101.477 14.9898 105.021 12.924 106.309C10.8582 107.596 9.53342 115.493 9.53342 115.493L8.46685 115.189Z" fill="#407BFF" fill-opacity="0.8"/>
  <path d="M17.9604 111.893H0.955078L2.33227 124.063H16.5832L17.9604 111.893Z" fill="#263238" fill-opacity="0.8"/>
  <path d="M142.665 91.0322H119.283V101.174H142.665V91.0322Z" fill="#407BFF" fill-opacity="0.8"/>
  <path opacity="0.8" d="M142.665 91.0322H119.283V101.174H142.665V91.0322Z" fill="white" fill-opacity="0.8"/>
  <path opacity="0.2" d="M121.155 92.024H142.663V91.0322H121.178L121.155 92.024Z" fill="black" fill-opacity="0.8"/>
  <path opacity="0.2" d="M121.155 92.8877L140.559 93.3031L121.155 93.7148V92.8877Z" fill="black" fill-opacity="0.8"/>
  <path opacity="0.2" d="M121.155 96.6377L141.705 96.9857L121.155 97.2776V96.6377Z" fill="black" fill-opacity="0.8"/>
  <path opacity="0.2" d="M121.155 98.8311L141.521 99.2427L121.155 99.6581V98.8311Z" fill="black" fill-opacity="0.8"/>
  <path opacity="0.2" d="M142.664 94.333L122.964 94.928L142.664 95.3397V94.333Z" fill="black" fill-opacity="0.8"/>
  <path d="M90.4768 96.0506C90.4788 97.2692 90.9643 98.4371 91.8266 99.298C92.6889 100.159 93.8577 100.643 95.0762 100.643H143.746C143.835 100.643 143.921 100.678 143.984 100.741C144.047 100.804 144.082 100.89 144.082 100.979V101.354C144.083 101.398 144.075 101.442 144.058 101.484C144.041 101.525 144.016 101.562 143.985 101.594C143.954 101.626 143.917 101.651 143.875 101.668C143.834 101.685 143.79 101.694 143.746 101.694H94.8217C94.0778 101.694 93.3412 101.547 92.6545 101.261C91.9678 100.975 91.3445 100.556 90.8205 100.028C90.2966 99.4994 89.8824 98.8728 89.6018 98.1838C89.3212 97.4948 89.1798 96.7571 89.1857 96.0132C89.2162 94.5047 89.8405 93.0691 90.923 92.0181C92.0055 90.9671 93.4589 90.3856 94.9677 90.3997H143.746C143.835 90.3997 143.921 90.4351 143.984 90.4983C144.047 90.5615 144.082 90.6471 144.082 90.7365V91.1107C144.083 91.1553 144.075 91.1995 144.058 91.2407C144.041 91.282 144.016 91.3196 143.985 91.3513C143.954 91.383 143.917 91.4081 143.875 91.4253C143.834 91.4424 143.79 91.4513 143.746 91.4513H95.2109C92.6773 91.4475 90.4731 93.517 90.4768 96.0506Z" fill="#263238" fill-opacity="0.8"/>
  <path opacity="0.4" d="M90.4768 96.0506C90.4788 97.2692 90.9643 98.4371 91.8266 99.298C92.6889 100.159 93.8577 100.643 95.0762 100.643H143.746C143.835 100.643 143.921 100.678 143.984 100.741C144.047 100.804 144.082 100.89 144.082 100.979V101.354C144.083 101.398 144.075 101.442 144.058 101.484C144.041 101.525 144.016 101.562 143.985 101.594C143.954 101.626 143.917 101.651 143.875 101.668C143.834 101.685 143.79 101.694 143.746 101.694H94.8217C94.0778 101.694 93.3412 101.547 92.6545 101.261C91.9678 100.975 91.3445 100.556 90.8205 100.028C90.2966 99.4994 89.8824 98.8728 89.6018 98.1838C89.3212 97.4948 89.1798 96.7571 89.1857 96.0132C89.2162 94.5047 89.8405 93.0691 90.923 92.0181C92.0055 90.9671 93.4589 90.3856 94.9677 90.3997H143.746C143.835 90.3997 143.921 90.4351 143.984 90.4983C144.047 90.5615 144.082 90.6471 144.082 90.7365V91.1107C144.083 91.1553 144.075 91.1995 144.058 91.2407C144.041 91.282 144.016 91.3196 143.985 91.3513C143.954 91.383 143.917 91.4081 143.875 91.4253C143.834 91.4424 143.79 91.4513 143.746 91.4513H95.2109C92.6773 91.4475 90.4731 93.517 90.4768 96.0506Z" fill="white" fill-opacity="0.8"/>
  <path d="M72.7266 96.1031C72.7276 97.4497 73.2629 98.7408 74.2151 99.693C75.1673 100.645 76.4584 101.181 77.805 101.182H121.156V91.0322H77.805C76.4597 91.0332 75.1697 91.5675 74.2177 92.5181C73.2658 93.4686 72.7295 94.7579 72.7266 96.1031Z" fill="#407BFF" fill-opacity="0.8"/>
  <path opacity="0.7" d="M121.156 91.0322V101.189H77.805C76.4581 101.189 75.1664 100.654 74.214 99.7016C73.2616 98.7492 72.7266 97.4575 72.7266 96.1106C72.7266 94.7637 73.2616 93.472 74.214 92.5196C75.1664 91.5673 76.4581 91.0322 77.805 91.0322H121.156Z" fill="white" fill-opacity="0.8"/>
  <path opacity="0.2" d="M121.157 93.7148V92.8877L77.9473 93.2357L121.157 93.7148Z" fill="black" fill-opacity="0.8"/>
  <path opacity="0.2" d="M121.156 97.2776V96.6377L101.76 97.3338L121.156 97.2776Z" fill="black" fill-opacity="0.8"/>
  <path opacity="0.2" d="M121.157 99.6581V98.8311L89.8818 99.3101L121.157 99.6581Z" fill="black" fill-opacity="0.8"/>
  <path opacity="0.2" d="M77.7353 92.0236C76.9055 92.0265 76.1059 92.3357 75.4899 92.8919C75.76 93.4165 75.9733 93.9685 76.1261 94.5385L119.478 94.8791L76.2159 94.9801C76.3684 95.7438 76.3544 96.5314 76.1748 97.2891L105.365 97.9291L75.8941 98.2696C75.6409 98.9735 75.3135 99.6485 74.9173 100.283C74.026 99.6681 73.3545 98.7844 73.001 97.7609C72.6474 96.7373 72.6303 95.6276 72.9521 94.5936C73.2739 93.5597 73.9178 92.6557 74.7897 92.0135C75.6617 91.3714 76.7161 91.0249 77.799 91.0244H121.158V92.0161L77.7353 92.0236Z" fill="black" fill-opacity="0.8"/>
  <path d="M73.1307 96.0506C73.1307 96.654 73.2495 97.2514 73.4805 97.8087C73.7115 98.3661 74.0501 98.8725 74.4769 99.2989C74.9037 99.7253 75.4103 100.064 75.9679 100.294C76.5254 100.525 77.123 100.643 77.7263 100.643H121.886C121.976 100.643 122.061 100.678 122.124 100.741C122.188 100.804 122.223 100.89 122.223 100.979V101.354C122.223 101.398 122.215 101.442 122.198 101.484C122.182 101.525 122.157 101.562 122.126 101.594C122.094 101.626 122.057 101.651 122.016 101.668C121.975 101.685 121.931 101.694 121.886 101.694H77.4868C76.7428 101.694 76.0063 101.547 75.3195 101.261C74.6328 100.975 74.0095 100.556 73.4855 100.028C72.9616 99.4994 72.5474 98.8728 72.2668 98.1838C71.9862 97.4948 71.8448 96.7571 71.8508 96.0132C71.8812 94.5047 72.5055 93.0691 73.588 92.0181C74.6706 90.9671 76.124 90.3856 77.6327 90.3997H121.886C121.976 90.3997 122.061 90.4351 122.124 90.4983C122.188 90.5615 122.223 90.6471 122.223 90.7365V91.1107C122.223 91.1553 122.215 91.1995 122.198 91.2407C122.182 91.282 122.157 91.3196 122.126 91.3513C122.094 91.383 122.057 91.4081 122.016 91.4253C121.975 91.4424 121.931 91.4513 121.886 91.4513H77.861C75.3312 91.4475 73.1269 93.517 73.1307 96.0506Z" fill="#263238" fill-opacity="0.8"/>
  <path d="M77.9473 94.7598V98.8315L79.4218 97.3607L80.8476 98.7866V94.7598H77.9473Z" fill="#407BFF" fill-opacity="0.8"/>
  <path d="M139.894 113.411H76.7832V123.568H139.894V113.411Z" fill="#407BFF" fill-opacity="0.8"/>
  <path opacity="0.7" d="M139.894 113.411H76.7832V123.568H139.894V113.411Z" fill="white" fill-opacity="0.8"/>
  <path opacity="0.2" d="M139.895 116.095V115.268L96.6816 115.616L139.895 116.095Z" fill="black" fill-opacity="0.8"/>
  <path opacity="0.2" d="M139.895 119.658V119.018L120.494 119.71L139.895 119.658Z" fill="black" fill-opacity="0.8"/>
  <path opacity="0.2" d="M139.896 122.033V121.21L108.617 121.689L139.896 122.033Z" fill="black" fill-opacity="0.8"/>
  <path opacity="0.2" d="M90.8915 113.411L89.9746 120.982L91.0562 119.829C91.4207 121.213 92.0994 122.493 93.0396 123.572C93.7144 122.685 94.2519 121.703 94.6339 120.656L124.109 120.32L94.9183 119.683C95.0089 119.27 95.0565 118.849 95.0605 118.426C95.0591 118.072 95.0253 117.719 94.9594 117.371L138.206 117.262L94.8584 116.921C94.7046 116.352 94.4913 115.8 94.2222 115.275C94.8381 114.719 95.6377 114.41 96.4676 114.407H139.879V113.415L90.8915 113.411Z" fill="black" fill-opacity="0.8"/>
  <path d="M91.8653 118.43C91.8673 119.649 92.3528 120.817 93.2151 121.678C94.0774 122.539 95.2462 123.022 96.4647 123.022H140.625C140.669 123.022 140.713 123.03 140.755 123.047C140.796 123.064 140.834 123.088 140.865 123.12C140.897 123.151 140.922 123.188 140.939 123.229C140.956 123.27 140.965 123.315 140.965 123.359V123.733C140.965 123.778 140.956 123.822 140.939 123.864C140.922 123.905 140.897 123.942 140.865 123.974C140.834 124.006 140.796 124.031 140.755 124.048C140.714 124.065 140.669 124.074 140.625 124.074H71.9223C71.1785 124.073 70.4422 123.926 69.7556 123.64C69.0691 123.353 68.446 122.934 67.9222 122.406C67.3983 121.878 66.9841 121.252 66.7034 120.563C66.4226 119.874 66.2809 119.137 66.2863 118.393C66.3216 116.888 66.948 115.457 68.03 114.41C69.112 113.363 70.5627 112.784 72.0682 112.798H140.621C140.665 112.798 140.71 112.806 140.751 112.823C140.792 112.839 140.83 112.864 140.861 112.895C140.893 112.927 140.918 112.964 140.935 113.005C140.953 113.046 140.961 113.09 140.961 113.135V113.509C140.961 113.554 140.953 113.598 140.935 113.639C140.918 113.681 140.893 113.718 140.862 113.75C140.83 113.782 140.793 113.807 140.751 113.824C140.71 113.841 140.666 113.85 140.621 113.85H96.5994C94.0659 113.827 91.8616 115.897 91.8653 118.43Z" fill="#407BFF" fill-opacity="0.8"/>
  <path opacity="0.2" d="M91.8653 118.43C91.8673 119.649 92.3528 120.817 93.2151 121.678C94.0774 122.539 95.2462 123.022 96.4647 123.022H140.625C140.669 123.022 140.713 123.03 140.755 123.047C140.796 123.064 140.834 123.088 140.865 123.12C140.897 123.151 140.922 123.188 140.939 123.229C140.956 123.27 140.965 123.315 140.965 123.359V123.733C140.965 123.778 140.956 123.822 140.939 123.864C140.922 123.905 140.897 123.942 140.865 123.974C140.834 124.006 140.796 124.031 140.755 124.048C140.714 124.065 140.669 124.074 140.625 124.074H71.9223C71.1785 124.073 70.4422 123.926 69.7556 123.64C69.0691 123.353 68.446 122.934 67.9222 122.406C67.3983 121.878 66.9841 121.252 66.7034 120.563C66.4226 119.874 66.2809 119.137 66.2863 118.393C66.3216 116.888 66.948 115.457 68.03 114.41C69.112 113.363 70.5627 112.784 72.0682 112.798H140.621C140.665 112.798 140.71 112.806 140.751 112.823C140.792 112.839 140.83 112.864 140.861 112.895C140.893 112.927 140.918 112.964 140.935 113.005C140.953 113.046 140.961 113.09 140.961 113.135V113.509C140.961 113.554 140.953 113.598 140.935 113.639C140.918 113.681 140.893 113.718 140.862 113.75C140.83 113.782 140.793 113.807 140.751 113.824C140.71 113.841 140.666 113.85 140.621 113.85H96.5994C94.0659 113.827 91.8616 115.897 91.8653 118.43Z" fill="black" fill-opacity="0.8"/>
  <path d="M91.865 118.43C91.867 119.648 92.3525 120.816 93.2148 121.677C94.0771 122.538 95.2459 123.022 96.4644 123.022H140.624C140.669 123.021 140.713 123.03 140.754 123.046C140.796 123.063 140.833 123.088 140.865 123.119C140.897 123.15 140.922 123.188 140.939 123.229C140.956 123.27 140.965 123.314 140.965 123.359V123.733C140.965 123.777 140.956 123.822 140.939 123.863C140.922 123.904 140.897 123.942 140.865 123.974C140.833 124.005 140.796 124.03 140.755 124.047C140.713 124.065 140.669 124.073 140.624 124.073H96.1987C95.4561 124.069 94.7217 123.918 94.0375 123.63C93.3533 123.341 92.7328 122.92 92.2113 122.392C91.6899 121.863 91.2779 121.236 90.9989 120.548C90.7198 119.86 90.5792 119.124 90.5851 118.381C90.6224 116.876 91.2499 115.446 92.3323 114.399C93.4147 113.352 94.8652 112.773 96.3708 112.786H140.621C140.665 112.786 140.709 112.794 140.751 112.811C140.792 112.828 140.829 112.852 140.861 112.884C140.893 112.915 140.918 112.952 140.935 112.993C140.952 113.035 140.961 113.079 140.961 113.123V113.497C140.961 113.542 140.952 113.586 140.935 113.628C140.918 113.669 140.893 113.707 140.861 113.738C140.83 113.77 140.792 113.795 140.751 113.812C140.71 113.829 140.665 113.838 140.621 113.838H96.5991C94.0655 113.827 91.8613 115.896 91.865 118.43Z" fill="#407BFF" fill-opacity="0.8"/>
  <path d="M96.6816 117.139V121.21L98.1561 119.736L99.5857 121.165V117.139H96.6816Z" fill="#407BFF" fill-opacity="0.8"/>
  <path opacity="0.2" d="M91.865 118.43C91.867 119.648 92.3525 120.816 93.2148 121.677C94.0771 122.538 95.2459 123.022 96.4644 123.022H140.624C140.669 123.021 140.713 123.03 140.754 123.046C140.796 123.063 140.833 123.088 140.865 123.119C140.897 123.15 140.922 123.188 140.939 123.229C140.956 123.27 140.965 123.314 140.965 123.359V123.733C140.965 123.777 140.956 123.822 140.939 123.863C140.922 123.904 140.897 123.942 140.865 123.974C140.833 124.005 140.796 124.03 140.755 124.047C140.713 124.065 140.669 124.073 140.624 124.073H96.1987C95.4561 124.069 94.7217 123.918 94.0375 123.63C93.3533 123.341 92.7328 122.92 92.2113 122.392C91.6899 121.863 91.2779 121.236 90.9989 120.548C90.7198 119.86 90.5792 119.124 90.5851 118.381C90.6224 116.876 91.2499 115.446 92.3323 114.399C93.4147 113.352 94.8652 112.773 96.3708 112.786H140.621C140.665 112.786 140.709 112.794 140.751 112.811C140.792 112.828 140.829 112.852 140.861 112.884C140.893 112.915 140.918 112.952 140.935 112.993C140.952 113.035 140.961 113.079 140.961 113.123V113.497C140.961 113.542 140.952 113.586 140.935 113.628C140.918 113.669 140.893 113.707 140.861 113.738C140.83 113.77 140.792 113.795 140.751 113.812C140.71 113.829 140.665 113.838 140.621 113.838H96.5991C94.0655 113.827 91.8613 115.896 91.865 118.43Z" fill="white" fill-opacity="0.8"/>
  <path d="M144.838 102.222H81.7266V112.378H144.838V102.222Z" fill="#407BFF" fill-opacity="0.8"/>
  <path opacity="0.8" d="M144.838 102.222H81.7266V112.378H144.838V102.222Z" fill="white" fill-opacity="0.8"/>
  <path opacity="0.2" d="M144.839 104.905V104.078L101.63 104.426L144.839 104.905Z" fill="black" fill-opacity="0.8"/>
  <path opacity="0.2" d="M144.839 108.468V107.828L125.442 108.524L144.839 108.468Z" fill="black" fill-opacity="0.8"/>
  <path opacity="0.2" d="M144.838 110.844V110.021L113.563 110.5L144.838 110.844Z" fill="black" fill-opacity="0.8"/>
  <path opacity="0.2" d="M95.8251 102.222L94.9082 109.792L95.986 108.64C96.3516 110.024 97.0317 111.304 97.9732 112.382C98.6484 111.495 99.1858 110.511 99.5675 109.463L129.039 109.126L99.8481 108.49C99.9387 108.077 99.9864 107.656 99.9903 107.233C99.9877 106.878 99.9527 106.525 99.8856 106.177L143.136 106.069L99.7882 105.728C99.6332 105.158 99.4187 104.607 99.1483 104.082C99.7643 103.525 100.564 103.216 101.394 103.213H144.85V102.222H95.8251Z" fill="black" fill-opacity="0.8"/>
  <path d="M96.813 107.24C96.8179 108.456 97.3042 109.621 98.1654 110.479C99.0266 111.338 100.193 111.82 101.409 111.821H145.569C145.613 111.821 145.657 111.829 145.699 111.846C145.74 111.862 145.777 111.887 145.809 111.918C145.841 111.95 145.866 111.987 145.883 112.028C145.9 112.069 145.909 112.113 145.909 112.158V112.532C145.909 112.622 145.873 112.709 145.809 112.773C145.745 112.837 145.659 112.873 145.569 112.873H80.3391C79.595 112.873 78.8583 112.725 78.1713 112.439C77.4844 112.153 76.8608 111.734 76.3366 111.206C75.8124 110.678 75.3978 110.052 75.1168 109.363C74.8358 108.674 74.6939 107.936 74.6994 107.192C74.7366 105.687 75.3636 104.257 76.4452 103.211C77.5268 102.164 78.9763 101.585 80.4813 101.597H145.569C145.613 101.596 145.657 101.605 145.699 101.621C145.74 101.638 145.777 101.663 145.809 101.694C145.841 101.726 145.866 101.763 145.883 101.804C145.9 101.845 145.909 101.889 145.909 101.934V102.308C145.909 102.353 145.9 102.397 145.883 102.438C145.866 102.48 145.841 102.517 145.809 102.549C145.778 102.58 145.74 102.605 145.699 102.623C145.658 102.64 145.613 102.648 145.569 102.648H101.543C99.0135 102.637 96.8093 104.711 96.813 107.24Z" fill="#407BFF" fill-opacity="0.8"/>
  <path opacity="0.4" d="M96.813 107.24C96.8179 108.456 97.3042 109.621 98.1654 110.479C99.0266 111.338 100.193 111.82 101.409 111.821H145.569C145.613 111.821 145.657 111.829 145.699 111.846C145.74 111.862 145.777 111.887 145.809 111.918C145.841 111.95 145.866 111.987 145.883 112.028C145.9 112.069 145.909 112.113 145.909 112.158V112.532C145.909 112.622 145.873 112.709 145.809 112.773C145.745 112.837 145.659 112.873 145.569 112.873H80.3391C79.595 112.873 78.8583 112.725 78.1713 112.439C77.4844 112.153 76.8608 111.734 76.3366 111.206C75.8124 110.678 75.3978 110.052 75.1168 109.363C74.8358 108.674 74.6939 107.936 74.6994 107.192C74.7366 105.687 75.3636 104.257 76.4452 103.211C77.5268 102.164 78.9763 101.585 80.4813 101.597H145.569C145.613 101.596 145.657 101.605 145.699 101.621C145.74 101.638 145.777 101.663 145.809 101.694C145.841 101.726 145.866 101.763 145.883 101.804C145.9 101.845 145.909 101.889 145.909 101.934V102.308C145.909 102.353 145.9 102.397 145.883 102.438C145.866 102.48 145.841 102.517 145.809 102.549C145.778 102.58 145.74 102.605 145.699 102.623C145.658 102.64 145.613 102.648 145.569 102.648H101.543C99.0135 102.637 96.8093 104.711 96.813 107.24Z" fill="white" fill-opacity="0.8"/>
  <path d="M96.8126 107.24C96.8176 108.456 97.3038 109.621 98.165 110.479C99.0262 111.338 100.192 111.82 101.408 111.821H145.568C145.613 111.821 145.657 111.829 145.698 111.846C145.739 111.862 145.777 111.887 145.809 111.918C145.84 111.95 145.866 111.987 145.883 112.028C145.9 112.069 145.909 112.113 145.909 112.158V112.532C145.909 112.622 145.873 112.709 145.809 112.773C145.745 112.837 145.658 112.873 145.568 112.873H101.158C100.413 112.873 99.6763 112.726 98.9891 112.44C98.302 112.155 97.6782 111.736 97.1539 111.207C96.6295 110.679 96.215 110.052 95.9342 109.363C95.6534 108.674 95.5118 107.936 95.5178 107.192C95.5531 105.687 96.1795 104.256 97.2615 103.209C98.3435 102.162 99.7942 101.583 101.3 101.597H145.568C145.613 101.596 145.657 101.605 145.698 101.621C145.739 101.638 145.777 101.663 145.809 101.694C145.84 101.726 145.866 101.763 145.883 101.804C145.9 101.845 145.909 101.889 145.909 101.934V102.308C145.909 102.353 145.9 102.397 145.883 102.438C145.866 102.48 145.841 102.517 145.809 102.549C145.777 102.58 145.74 102.605 145.698 102.623C145.657 102.64 145.613 102.649 145.568 102.649H101.543C99.0131 102.637 96.8089 104.711 96.8126 107.24Z" fill="#407BFF" fill-opacity="0.8"/>
  <path d="M105.129 104.505V108.577L106.603 107.102L108.033 108.532V104.505H105.129Z" fill="#263238" fill-opacity="0.8"/>
  <path opacity="0.6" d="M96.8126 107.24C96.8176 108.456 97.3038 109.621 98.165 110.479C99.0262 111.338 100.192 111.82 101.408 111.821H145.568C145.613 111.821 145.657 111.829 145.698 111.846C145.739 111.862 145.777 111.887 145.809 111.918C145.84 111.95 145.866 111.987 145.883 112.028C145.9 112.069 145.909 112.113 145.909 112.158V112.532C145.909 112.622 145.873 112.709 145.809 112.773C145.745 112.837 145.658 112.873 145.568 112.873H101.158C100.413 112.873 99.6763 112.726 98.9891 112.44C98.302 112.155 97.6782 111.736 97.1539 111.207C96.6295 110.679 96.215 110.052 95.9342 109.363C95.6534 108.674 95.5118 107.936 95.5178 107.192C95.5531 105.687 96.1795 104.256 97.2615 103.209C98.3435 102.162 99.7942 101.583 101.3 101.597H145.568C145.613 101.596 145.657 101.605 145.698 101.621C145.739 101.638 145.777 101.663 145.809 101.694C145.84 101.726 145.866 101.763 145.883 101.804C145.9 101.845 145.909 101.889 145.909 101.934V102.308C145.909 102.353 145.9 102.397 145.883 102.438C145.866 102.48 145.841 102.517 145.809 102.549C145.777 102.58 145.74 102.605 145.698 102.623C145.657 102.64 145.613 102.649 145.568 102.649H101.543C99.0131 102.637 96.8089 104.711 96.8126 107.24Z" fill="white" fill-opacity="0.8"/>
  <path d="M139.196 68.6533H115.813V78.7951H139.196V68.6533Z" fill="#407BFF" fill-opacity="0.8"/>
  <path opacity="0.7" d="M139.196 68.6533H115.813V78.7951H139.196V68.6533Z" fill="white" fill-opacity="0.8"/>
  <path opacity="0.2" d="M117.688 69.645H139.196V68.6533H117.711L117.688 69.645Z" fill="black" fill-opacity="0.8"/>
  <path opacity="0.2" d="M117.688 70.5088L137.093 70.9242L117.688 71.3359V70.5088Z" fill="black" fill-opacity="0.8"/>
  <path opacity="0.2" d="M117.688 74.2588L138.238 74.6068L117.688 74.8987V74.2588Z" fill="black" fill-opacity="0.8"/>
  <path opacity="0.2" d="M117.688 76.4561L138.054 76.8677L117.688 77.2794V76.4561Z" fill="black" fill-opacity="0.8"/>
  <path opacity="0.2" d="M139.195 71.9541L119.495 72.5491L139.195 72.9608V71.9541Z" fill="black" fill-opacity="0.8"/>
  <path d="M87.0083 73.6713C87.0103 74.8898 87.4958 76.0578 88.3581 76.9187C89.2204 77.7797 90.3892 78.2632 91.6077 78.2632H140.258C140.348 78.2632 140.433 78.2987 140.497 78.3618C140.56 78.425 140.595 78.5107 140.595 78.6V78.9743C140.596 79.0188 140.587 79.063 140.571 79.1043C140.554 79.1456 140.529 79.1832 140.498 79.2148C140.467 79.2465 140.429 79.2717 140.388 79.2888C140.347 79.306 140.303 79.3148 140.258 79.3148H91.3532C90.6088 79.3139 89.8719 79.1655 89.1851 78.8784C88.4983 78.5913 87.8751 78.171 87.3515 77.6418C86.8279 77.1127 86.4143 76.4851 86.1344 75.7953C85.8546 75.1055 85.714 74.3671 85.7209 73.6227C85.7601 72.12 86.3875 70.6928 87.468 69.648C88.5486 68.6031 89.9961 68.024 91.4992 68.0353H140.277C140.366 68.0353 140.452 68.0708 140.515 68.134C140.578 68.1971 140.614 68.2828 140.614 68.3721V68.7464C140.614 68.7909 140.606 68.8351 140.589 68.8764C140.573 68.9177 140.548 68.9553 140.517 68.987C140.485 69.0186 140.448 69.0438 140.407 69.0609C140.366 69.0781 140.322 69.0869 140.277 69.0869H91.7424C89.2088 69.0682 87.0046 71.1377 87.0083 73.6713Z" fill="#407BFF" fill-opacity="0.8"/>
  <path opacity="0.4" d="M87.0083 73.6713C87.0103 74.8898 87.4958 76.0578 88.3581 76.9187C89.2204 77.7797 90.3892 78.2632 91.6077 78.2632H140.258C140.348 78.2632 140.433 78.2987 140.497 78.3618C140.56 78.425 140.595 78.5107 140.595 78.6V78.9743C140.596 79.0188 140.587 79.063 140.571 79.1043C140.554 79.1456 140.529 79.1832 140.498 79.2148C140.467 79.2465 140.429 79.2717 140.388 79.2888C140.347 79.306 140.303 79.3148 140.258 79.3148H91.3532C90.6088 79.3139 89.8719 79.1655 89.1851 78.8784C88.4983 78.5913 87.8751 78.171 87.3515 77.6418C86.8279 77.1127 86.4143 76.4851 86.1344 75.7953C85.8546 75.1055 85.714 74.3671 85.7209 73.6227C85.7601 72.12 86.3875 70.6928 87.468 69.648C88.5486 68.6031 89.9961 68.024 91.4992 68.0353H140.277C140.366 68.0353 140.452 68.0708 140.515 68.134C140.578 68.1971 140.614 68.2828 140.614 68.3721V68.7464C140.614 68.7909 140.606 68.8351 140.589 68.8764C140.573 68.9177 140.548 68.9553 140.517 68.987C140.485 69.0186 140.448 69.0438 140.407 69.0609C140.366 69.0781 140.322 69.0869 140.277 69.0869H91.7424C89.2088 69.0682 87.0046 71.1377 87.0083 73.6713Z" fill="white" fill-opacity="0.8"/>
  <path d="M69.2549 73.7317C69.2549 75.0786 69.7899 76.3703 70.7423 77.3227C71.6947 78.2751 72.9864 78.8101 74.3333 78.8101H117.689V68.6533H74.337C72.9898 68.6533 71.6977 69.1882 70.7447 70.1405C69.7917 71.0928 69.2559 72.3845 69.2549 73.7317Z" fill="#407BFF" fill-opacity="0.8"/>
  <path opacity="0.5" d="M117.686 68.6533V78.8138H74.3349C73.0114 78.7779 71.7541 78.2269 70.8307 77.2781C69.9073 76.3293 69.3906 75.0576 69.3906 73.7336C69.3906 72.4096 69.9073 71.1379 70.8307 70.1891C71.7541 69.2402 73.0114 68.6892 74.3349 68.6533H117.686Z" fill="white" fill-opacity="0.8"/>
  <path opacity="0.2" d="M117.687 71.3359V70.5088L74.4775 70.8568L117.687 71.3359Z" fill="black" fill-opacity="0.8"/>
  <path opacity="0.2" d="M117.689 74.8987V74.2588L98.292 74.9549L117.689 74.8987Z" fill="black" fill-opacity="0.8"/>
  <path opacity="0.2" d="M117.687 77.2794V76.4561L86.4121 76.9313L117.687 77.2794Z" fill="black" fill-opacity="0.8"/>
  <path opacity="0.2" d="M74.2655 69.645C73.4356 69.6479 72.636 69.9571 72.0201 70.5133C72.2902 71.0379 72.5035 71.5899 72.6563 72.1599L116.008 72.5005L72.7573 72.609C72.9098 73.3727 72.8958 74.1603 72.7162 74.918L101.907 75.558L72.4355 75.8985C72.1827 76.6033 71.8539 77.2784 71.455 77.9119C70.5659 77.2955 69.8967 76.4113 69.5448 75.3882C69.1929 74.365 69.1768 73.2563 69.4987 72.2234C69.8206 71.1904 70.4638 70.2872 71.3346 69.6451C72.2054 69.003 73.2584 68.6555 74.3404 68.6533H117.688V69.645H74.2655Z" fill="black" fill-opacity="0.8"/>
  <path d="M69.6612 73.6714C69.6612 74.2747 69.7801 74.8722 70.0111 75.4295C70.2421 75.9869 70.5807 76.4932 71.0075 76.9197C71.4343 77.3461 71.9409 77.6843 72.4985 77.9148C73.056 78.1454 73.6535 78.2638 74.2569 78.2633H118.417C118.506 78.2633 118.592 78.2988 118.655 78.3619C118.718 78.4251 118.754 78.5108 118.754 78.6001V78.9743C118.754 79.0189 118.746 79.0631 118.729 79.1044C118.712 79.1457 118.688 79.1833 118.656 79.2149C118.625 79.2466 118.588 79.2717 118.547 79.2889C118.505 79.3061 118.461 79.3149 118.417 79.3149H74.0024C73.2585 79.3149 72.5219 79.1677 71.8352 78.8816C71.1484 78.5956 70.5251 78.1764 70.0012 77.6483C69.4772 77.1202 69.063 76.4936 68.7824 75.8046C68.5019 75.1156 68.3605 74.3779 68.3664 73.634C68.4008 72.1281 69.0267 70.6964 70.1088 69.6486C71.191 68.6008 72.6421 68.0212 74.1483 68.0354H118.417C118.506 68.0354 118.592 68.0709 118.655 68.1341C118.718 68.1972 118.754 68.2829 118.754 68.3722V68.7465C118.754 68.791 118.746 68.8352 118.729 68.8765C118.712 68.9178 118.688 68.9554 118.656 68.987C118.625 69.0187 118.588 69.0439 118.547 69.061C118.505 69.0782 118.461 69.087 118.417 69.087H74.3916C71.873 69.0683 69.6575 71.1378 69.6612 73.6714Z" fill="#407BFF" fill-opacity="0.8"/>
  <path d="M74.4775 72.3799V76.4553L75.9483 74.9808L77.3779 76.4067V72.3799H74.4775Z" fill="#407BFF" fill-opacity="0.8"/>
  <path d="M150.302 79.8418H87.1904V89.9986H150.302V79.8418Z" fill="#407BFF" fill-opacity="0.8"/>
  <path opacity="0.7" d="M150.302 79.8418H87.1904V89.9986H150.302V79.8418Z" fill="white" fill-opacity="0.8"/>
  <path opacity="0.2" d="M150.303 82.5253V81.6982L107.094 82.0463L150.303 82.5253Z" fill="black" fill-opacity="0.8"/>
  <path opacity="0.2" d="M150.302 86.0882V85.4482L130.905 86.1443L150.302 86.0882Z" fill="black" fill-opacity="0.8"/>
  <path opacity="0.2" d="M150.301 88.4687V87.6416L119.026 88.1206L150.301 88.4687Z" fill="black" fill-opacity="0.8"/>
  <path opacity="0.2" d="M101.3 79.8418L100.387 87.4126L101.465 86.26C101.828 87.6444 102.509 88.9255 103.452 90.0023C104.126 89.1175 104.662 88.1359 105.042 87.0908L134.517 86.7502L105.327 86.114C105.421 85.7014 105.469 85.2798 105.473 84.8566C105.47 84.5023 105.435 84.1491 105.368 83.8012L148.618 83.6927L105.267 83.3521C105.114 82.7822 104.901 82.2302 104.631 81.7055C105.247 81.1493 106.046 80.8402 106.876 80.8373H150.287V79.8455L101.3 79.8418Z" fill="black" fill-opacity="0.8"/>
  <path d="M102.276 84.8757C102.276 85.479 102.395 86.0764 102.626 86.6338C102.857 87.1911 103.196 87.6975 103.623 88.124C104.049 88.5504 104.556 88.8885 105.114 89.1191C105.671 89.3496 106.269 89.468 106.872 89.4675H151.032C151.121 89.4675 151.207 89.503 151.27 89.5662C151.333 89.6294 151.369 89.715 151.369 89.8044V90.1786C151.369 90.2232 151.361 90.2673 151.344 90.3086C151.327 90.3499 151.303 90.3875 151.271 90.4192C151.24 90.4509 151.203 90.476 151.162 90.4932C151.121 90.5103 151.076 90.5192 151.032 90.5192H82.3295C81.5856 90.5192 80.849 90.3719 80.1623 90.0859C79.4756 89.7998 78.8523 89.3807 78.3283 88.8526C77.8044 88.3244 77.3902 87.6978 77.1096 87.0088C76.829 86.3199 76.6876 85.5821 76.6935 84.8382C76.7289 83.333 77.3553 81.9022 78.4373 80.8552C79.5193 79.8082 80.9699 79.2292 82.4755 79.2434H151.032C151.121 79.2434 151.207 79.2789 151.27 79.3421C151.333 79.4052 151.369 79.4909 151.369 79.5802V79.9545C151.369 79.999 151.361 80.0432 151.344 80.0845C151.327 80.1258 151.303 80.1634 151.271 80.195C151.24 80.2267 151.203 80.2519 151.162 80.269C151.121 80.2862 151.076 80.295 151.032 80.295H107.007C104.473 80.2576 102.273 82.3271 102.276 84.8757Z" fill="#263238" fill-opacity="0.8"/>
  <path opacity="0.2" d="M102.276 84.8757C102.276 85.479 102.395 86.0764 102.626 86.6338C102.857 87.1911 103.196 87.6975 103.623 88.124C104.049 88.5504 104.556 88.8885 105.114 89.1191C105.671 89.3496 106.269 89.468 106.872 89.4675H151.032C151.121 89.4675 151.207 89.503 151.27 89.5662C151.333 89.6294 151.369 89.715 151.369 89.8044V90.1786C151.369 90.2232 151.361 90.2673 151.344 90.3086C151.327 90.3499 151.303 90.3875 151.271 90.4192C151.24 90.4509 151.203 90.476 151.162 90.4932C151.121 90.5103 151.076 90.5192 151.032 90.5192H82.3295C81.5856 90.5192 80.849 90.3719 80.1623 90.0859C79.4756 89.7998 78.8523 89.3807 78.3283 88.8526C77.8044 88.3244 77.3902 87.6978 77.1096 87.0088C76.829 86.3199 76.6876 85.5821 76.6935 84.8382C76.7289 83.333 77.3553 81.9022 78.4373 80.8552C79.5193 79.8082 80.9699 79.2292 82.4755 79.2434H151.032C151.121 79.2434 151.207 79.2789 151.27 79.3421C151.333 79.4052 151.369 79.4909 151.369 79.5802V79.9545C151.369 79.999 151.361 80.0432 151.344 80.0845C151.327 80.1258 151.303 80.1634 151.271 80.195C151.24 80.2267 151.203 80.2519 151.162 80.269C151.121 80.2862 151.076 80.295 151.032 80.295H107.007C104.473 80.2576 102.273 82.3271 102.276 84.8757Z" fill="white" fill-opacity="0.8"/>
  <path d="M102.276 84.8757C102.276 85.479 102.395 86.0764 102.626 86.6338C102.857 87.1911 103.196 87.6975 103.623 88.124C104.05 88.5504 104.556 88.8885 105.114 89.1191C105.671 89.3496 106.269 89.468 106.872 89.4675H151.032C151.121 89.4675 151.207 89.503 151.27 89.5662C151.333 89.6294 151.369 89.715 151.369 89.8044V90.1786C151.369 90.2232 151.361 90.2673 151.344 90.3086C151.328 90.3499 151.303 90.3875 151.272 90.4192C151.24 90.4509 151.203 90.476 151.162 90.4932C151.121 90.5103 151.077 90.5192 151.032 90.5192H106.618C105.874 90.5192 105.137 90.3719 104.45 90.0859C103.764 89.7998 103.14 89.3807 102.616 88.8526C102.092 88.3244 101.678 87.6978 101.398 87.0088C101.117 86.3199 100.976 85.5821 100.982 84.8382C101.017 83.333 101.643 81.9022 102.725 80.8552C103.807 79.8082 105.258 79.2292 106.764 79.2434H151.032C151.121 79.2434 151.207 79.2789 151.27 79.3421C151.333 79.4052 151.369 79.4909 151.369 79.5802V79.9545C151.369 79.999 151.361 80.0432 151.344 80.0845C151.328 80.1258 151.303 80.1634 151.272 80.195C151.24 80.2267 151.203 80.2519 151.162 80.269C151.121 80.2862 151.077 80.295 151.032 80.295H107.007C104.473 80.2576 102.273 82.3271 102.276 84.8757Z" fill="#263238" fill-opacity="0.8"/>
  <path d="M107.094 83.5693V87.641L108.565 86.1703L109.994 87.5961V83.5693H107.094Z" fill="#263238" fill-opacity="0.8"/>
  <path opacity="0.4" d="M102.276 84.8757C102.276 85.479 102.395 86.0764 102.626 86.6338C102.857 87.1911 103.196 87.6975 103.623 88.124C104.05 88.5504 104.556 88.8885 105.114 89.1191C105.671 89.3496 106.269 89.468 106.872 89.4675H151.032C151.121 89.4675 151.207 89.503 151.27 89.5662C151.333 89.6294 151.369 89.715 151.369 89.8044V90.1786C151.369 90.2232 151.361 90.2673 151.344 90.3086C151.328 90.3499 151.303 90.3875 151.272 90.4192C151.24 90.4509 151.203 90.476 151.162 90.4932C151.121 90.5103 151.077 90.5192 151.032 90.5192H106.618C105.874 90.5192 105.137 90.3719 104.45 90.0859C103.764 89.7998 103.14 89.3807 102.616 88.8526C102.092 88.3244 101.678 87.6978 101.398 87.0088C101.117 86.3199 100.976 85.5821 100.982 84.8382C101.017 83.333 101.643 81.9022 102.725 80.8552C103.807 79.8082 105.258 79.2292 106.764 79.2434H151.032C151.121 79.2434 151.207 79.2789 151.27 79.3421C151.333 79.4052 151.369 79.4909 151.369 79.5802V79.9545C151.369 79.999 151.361 80.0432 151.344 80.0845C151.328 80.1258 151.303 80.1634 151.272 80.195C151.24 80.2267 151.203 80.2519 151.162 80.269C151.121 80.2862 151.077 80.295 151.032 80.295H107.007C104.473 80.2576 102.273 82.3271 102.276 84.8757Z" fill="white" fill-opacity="0.8"/>
  <path d="M131.633 3.75684H111.084C110.036 3.75684 109.187 4.60632 109.187 5.65421V11.2416C109.187 12.2895 110.036 13.1389 111.084 13.1389H131.633C132.681 13.1389 133.531 12.2895 133.531 11.2416V5.65421C133.531 4.60632 132.681 3.75684 131.633 3.75684Z" fill="#407BFF" fill-opacity="0.8"/>
  <path d="M113.775 12.1055L109.838 17.4571L116.189 12.4647L113.775 12.1055Z" fill="#407BFF" fill-opacity="0.8"/>
  <path d="M113.966 8.76434C113.966 9.13858 113.67 9.35189 113.101 9.35189H111.979V7.19629H113.038C113.577 7.19629 113.853 7.42083 113.853 7.75764C113.855 7.85601 113.829 7.95287 113.778 8.037C113.727 8.12112 113.653 8.18906 113.565 8.23292C113.683 8.26269 113.786 8.33158 113.859 8.4282C113.932 8.52483 113.969 8.64341 113.966 8.76434ZM112.469 7.57427V8.07949H112.963C113.206 8.07949 113.337 7.99341 113.337 7.82501C113.337 7.6566 113.202 7.57427 112.963 7.57427H112.469ZM113.449 8.69698C113.449 8.51734 113.311 8.42753 113.049 8.42753H112.469V8.96269H113.049C113.326 8.97765 113.464 8.90655 113.464 8.71195L113.449 8.69698Z" fill="white" fill-opacity="0.8"/>
  <path d="M114.208 8.27404C114.197 8.03882 114.257 7.80563 114.379 7.60453C114.502 7.40343 114.682 7.24364 114.896 7.14574C115.11 7.04785 115.349 7.01635 115.581 7.0553C115.813 7.09424 116.028 7.20186 116.199 7.36426C116.369 7.52667 116.487 7.73642 116.538 7.96649C116.588 8.19656 116.568 8.4364 116.481 8.6551C116.393 8.87379 116.242 9.06132 116.048 9.19351C115.853 9.32569 115.623 9.39648 115.387 9.39675C115.235 9.40437 115.083 9.38096 114.94 9.32796C114.798 9.27496 114.667 9.19347 114.557 9.08844C114.447 8.98342 114.359 8.85706 114.299 8.71706C114.239 8.57705 114.208 8.42632 114.208 8.27404ZM116.061 8.27404C116.058 8.14149 116.016 8.01275 115.94 7.90396C115.864 7.79517 115.758 7.71116 115.635 7.66247C115.511 7.61377 115.377 7.60255 115.247 7.63021C115.117 7.65786 114.999 7.72317 114.906 7.81795C114.813 7.91273 114.75 8.03276 114.726 8.163C114.701 8.29325 114.715 8.42792 114.766 8.55014C114.818 8.67236 114.904 8.77669 115.015 8.85007C115.125 8.92345 115.255 8.96261 115.387 8.96264C115.478 8.96535 115.568 8.94927 115.652 8.91542C115.736 8.88158 115.812 8.8307 115.875 8.766C115.938 8.70129 115.987 8.62417 116.019 8.5395C116.051 8.45482 116.066 8.36444 116.061 8.27404Z" fill="white" fill-opacity="0.8"/>
  <path d="M116.81 8.27404C116.799 8.03882 116.858 7.80563 116.981 7.60453C117.103 7.40343 117.283 7.24364 117.497 7.14574C117.712 7.04785 117.95 7.01635 118.182 7.0553C118.415 7.09424 118.63 7.20186 118.8 7.36426C118.971 7.52667 119.089 7.73642 119.139 7.96649C119.189 8.19656 119.17 8.4364 119.082 8.6551C118.995 8.87379 118.844 9.06132 118.649 9.19351C118.454 9.32569 118.224 9.39648 117.989 9.39675C117.837 9.40437 117.685 9.38096 117.542 9.32796C117.399 9.27496 117.269 9.19347 117.158 9.08844C117.048 8.98342 116.96 8.85706 116.9 8.71706C116.841 8.57705 116.81 8.42632 116.81 8.27404ZM118.662 8.27404C118.659 8.14149 118.617 8.01275 118.542 7.90396C118.466 7.79517 118.36 7.71116 118.236 7.66247C118.113 7.61377 117.978 7.60255 117.848 7.63021C117.719 7.65786 117.6 7.72317 117.507 7.81795C117.415 7.91273 117.352 8.03276 117.327 8.163C117.302 8.29325 117.317 8.42792 117.368 8.55014C117.419 8.67236 117.506 8.77669 117.616 8.85007C117.727 8.92345 117.856 8.96261 117.989 8.96264C118.078 8.96378 118.167 8.94655 118.25 8.912C118.332 8.87746 118.407 8.82634 118.469 8.76181C118.531 8.69727 118.579 8.62069 118.611 8.53679C118.642 8.4529 118.656 8.36347 118.651 8.27404H118.662Z" fill="white" fill-opacity="0.8"/>
  <path d="M120.328 8.50612L120.04 8.80925V9.35189H119.546V7.19629H120.04V8.20299L120.994 7.19629H121.548L120.657 8.15808L121.6 9.35189H121.02L120.328 8.50612Z" fill="white" fill-opacity="0.8"/>
  <path d="M123.785 9.35189V8.06077L123.149 9.12361H122.925L122.296 8.08697V9.35189H121.828V7.19629H122.24L123.044 8.53606L123.842 7.19629H124.264V9.35189H123.785Z" fill="white" fill-opacity="0.8"/>
  <path d="M126.184 8.90623H125.185L124.994 9.36654H124.481L125.443 7.21094H125.933L126.899 9.36654H126.375L126.184 8.90623ZM126.027 8.53199L125.686 7.70493L125.342 8.53199H126.027Z" fill="white" fill-opacity="0.8"/>
  <path d="M128.497 9.35189L128.081 8.75311H127.632V9.35189H127.131V7.19629H128.066C128.639 7.19629 129.002 7.49568 129.002 7.97844C129.008 8.12423 128.968 8.26826 128.889 8.39038C128.809 8.51251 128.693 8.60662 128.557 8.65955L129.039 9.35189H128.497ZM128.029 7.60421H127.632V8.35268H128.037C128.343 8.35268 128.497 8.21047 128.497 7.97844C128.497 7.74642 128.336 7.60421 128.029 7.60421Z" fill="white" fill-opacity="0.8"/>
  <path d="M130.174 8.50612L129.885 8.80925V9.35189H129.388V7.19629H129.878V8.20299L130.832 7.19629H131.386L130.499 8.15808L131.446 9.35189H130.862L130.174 8.50612Z" fill="white" fill-opacity="0.8"/>
  <path d="M69.0625 89.9357L71.5212 90.5307L72.7674 87.1327L73.8976 84.0415L71.0946 82.8477L70.0168 86.5975L69.0625 89.9357Z" fill="#B97964" fill-opacity="0.8"/>
  <path opacity="0.2" d="M70.0176 86.5975L72.7682 87.1327L73.8984 84.0415L71.0954 82.8477L70.0176 86.5975Z" fill="black" fill-opacity="0.8"/>
  <path d="M70.2686 84.805L73.6816 86.0737C73.6816 86.0737 82.7868 63.3089 84.6579 63.2452C86.5291 63.1816 105.581 71.9238 110.357 67.0662C115.132 62.2086 108.227 50.51 108.227 50.51C108.227 50.51 96.742 48.8708 95.8776 51.4643C95.6648 52.2288 95.5023 53.0063 95.391 53.792C95.2601 54.5854 95.1702 55.2516 95.1702 55.2516C94.796 55.1617 83.2845 52.1866 78.7413 55.2516C74.1194 58.3577 70.2686 84.805 70.2686 84.805Z" fill="#407BFF" fill-opacity="0.8"/>
  <path d="M89.8977 99.6469L92.3489 99.0182L91.8774 95.5003L91.4395 92.2744L88.4082 92.5476L89.1978 96.3087L89.8977 99.6469Z" fill="#B97964" fill-opacity="0.8"/>
  <path opacity="0.2" d="M89.2157 96.384L91.8953 95.5682L91.4499 92.3086L88.4111 92.5631L89.2157 96.384Z" fill="black" fill-opacity="0.8"/>
  <path d="M75.0875 84.8089L70.1176 83.1211L69.9043 85.1569L73.6766 86.4892L75.0875 84.8089Z" fill="#263238" fill-opacity="0.8"/>
  <path d="M102.108 68.2189C102.108 68.2189 101.329 68.2376 89.2825 67.6763C89.2825 67.6763 91.0825 82.7355 92.063 94.0113L88.4629 94.625C88.4629 94.625 79.8554 70.483 79.949 66.6471C80.0426 62.8112 84.4398 61.6885 84.4398 61.6885C84.4398 61.6885 93.0211 66.6471 102.108 68.2189Z" fill="#407BFF" fill-opacity="0.8"/>
  <path opacity="0.2" d="M102.108 68.2189C102.108 68.2189 101.329 68.2376 89.2825 67.6763C89.2825 67.6763 91.0825 82.7355 92.063 94.0113L88.4629 94.625C88.4629 94.625 79.8554 70.483 79.949 66.6471C80.0426 62.8112 84.4398 61.6885 84.4398 61.6885C84.4398 61.6885 93.0211 66.6471 102.108 68.2189Z" fill="black" fill-opacity="0.8"/>
  <path d="M92.5918 92.9189L87.6406 93.4803L88.5949 95.4226L92.603 94.9099L92.5918 92.9189Z" fill="#263238" fill-opacity="0.8"/>
  <path opacity="0.2" d="M95.1699 55.2369L101.887 56.6365C101.887 56.6365 98.175 54.5857 95.3907 53.7773C95.2597 54.5632 95.1699 55.2369 95.1699 55.2369Z" fill="black" fill-opacity="0.8"/>
  <path d="M107.947 48.7061L108.224 50.4949L95.8744 51.4455L95.5488 49.3348L107.947 48.7061Z" fill="#263238" fill-opacity="0.8"/>
  <path d="M104.052 51.6956L104.662 51.6328L104.343 48.5243L103.732 48.5871L104.052 51.6956Z" fill="#407BFF" fill-opacity="0.8"/>
  <path d="M98.6597 50.7134L101.369 50.5508L101.246 48.4962L98.5364 48.6588L98.6597 50.7134Z" fill="white" fill-opacity="0.8"/>
  <path d="M96.4754 52.0266L97.0859 51.9639L96.7664 48.8554L96.1558 48.9182L96.4754 52.0266Z" fill="#407BFF" fill-opacity="0.8"/>
  <path d="M64.988 94.7189C65.3616 94.5462 65.7636 94.4435 66.1743 94.4158C66.1743 94.4158 67.5964 93.5775 69.0072 90.3291H70.5903C70.8576 90.3315 71.1177 90.4161 71.3353 90.5714C71.5529 90.7267 71.7174 90.9453 71.8065 91.1973C71.8326 91.2682 71.8477 91.3427 71.8514 91.4181C71.8358 91.8008 71.7958 92.182 71.7317 92.5595C71.4994 93.8249 71.1895 95.0747 70.8036 96.3019L70.5341 96.2346L71.0244 93.8694C71.1853 93.0648 70.3433 93.8432 69.9503 94.6515C69.5574 95.4599 68.9586 96.2757 67.2109 95.8753C65.1713 95.3776 64.348 95.0856 64.988 94.7189Z" fill="#263238" fill-opacity="0.8"/>
  <path d="M69.2932 89.4754C69.2932 89.4754 67.3172 93.6144 66.1758 94.4153C66.1758 94.4153 67.7027 95.3247 69.2932 93.2926C71.3515 90.6729 71.8529 91.4027 71.8529 91.4027C71.8121 90.9507 71.7294 90.5034 71.6059 90.0667C71.2953 89.2284 69.2932 89.4754 69.2932 89.4754Z" fill="#B97964" fill-opacity="0.8"/>
  <path d="M86.7768 104.579C87.0984 104.322 87.4651 104.126 87.8583 104.003C87.8583 104.003 89.0409 102.854 89.6397 99.3626L91.1778 98.9884C91.4385 98.9284 91.7113 98.9498 91.9595 99.0494C92.2077 99.1491 92.4194 99.3224 92.5662 99.546C92.6086 99.609 92.6402 99.6785 92.6598 99.7518C92.7346 100.122 92.7859 100.497 92.8132 100.875C92.8908 102.153 92.8908 103.435 92.8132 104.714H92.5363L92.4502 102.304C92.4165 101.485 91.7803 102.439 91.5932 103.318C91.4061 104.198 91.0132 105.13 89.2206 105.156C87.1099 105.178 86.2454 105.085 86.7768 104.579Z" fill="#263238" fill-opacity="0.8"/>
  <path d="M89.7169 98.4692C89.7169 98.4692 88.7738 102.96 87.8457 104.004C87.8457 104.004 89.5447 104.528 90.6113 102.182C91.9848 99.1465 92.6472 99.7416 92.6472 99.7416C92.5006 99.3109 92.3139 98.8949 92.0895 98.4991C91.603 97.7544 89.7169 98.4692 89.7169 98.4692Z" fill="#B97964" fill-opacity="0.8"/>
  <path d="M118.998 61.4678L120.776 65.4571C120.776 65.4571 124.38 66.8643 124.38 67.347C124.38 67.8298 122.849 68.6531 122.699 68.6531C122.55 68.6531 119.331 68.3275 118.998 68.0281C118.665 67.7288 118.755 66.3441 118.755 66.3441L116.682 62.1489L118.998 61.4678Z" fill="#B97964" fill-opacity="0.8"/>
  <path d="M70.0707 21.3345L66.5603 18.8271C66.5603 18.8271 65.999 16.7912 65.6285 16.7576C65.258 16.7239 61.8525 15.3916 61.336 15.3916C60.8196 15.3916 60.8158 18.4079 61.336 19.0479C61.8562 19.6878 64.2139 20.7507 64.8089 20.6609L68.7384 23.8868L70.0707 21.3345Z" fill="#B97964" fill-opacity="0.8"/>
  <path d="M93.8338 29.2867C93.8338 29.2867 81.5738 27.176 79.2386 25.7127C76.9033 24.2495 67.2406 18.7295 67.2406 18.7295L66.1553 22.5729C66.1553 22.5729 76.0651 30.9034 79.8112 32.4827C83.5573 34.062 93.5793 37.6022 93.5793 37.6022L93.8338 29.2867Z" fill="#263238" fill-opacity="0.8"/>
  <path opacity="0.1" d="M93.8351 29.2867L93.7528 32.5238L93.5806 37.6022L90.6354 36.5319C87.0876 35.2333 81.3992 33.1413 79.8312 32.4827C76.0888 30.9034 66.1865 22.5729 66.1865 22.5729L67.2718 18.7295C67.2718 18.7295 76.9271 24.2495 79.2511 25.7127C81.5751 27.176 93.8351 29.2867 93.8351 29.2867Z" fill="white" fill-opacity="0.8"/>
  <path opacity="0.2" d="M93.7521 32.5246L93.58 37.603L90.6348 36.5327C91.2435 34.6905 92.2489 33.0042 93.58 31.5928L93.7521 32.5246Z" fill="black" fill-opacity="0.8"/>
  <path d="M107.232 21.8321C107.232 21.8321 107.782 27.0078 105.862 28.2802C103.942 29.5526 94.515 28.0631 93.4446 25.9786C92.3743 23.8941 96.4011 18.2432 96.4011 18.2432L107.232 21.8321Z" fill="#263238" fill-opacity="0.8"/>
  <path d="M93.8341 29.2871C96.1468 29.9289 98.5476 30.1943 100.945 30.073C104.908 29.8709 109.646 31.7945 109.646 31.7945L107.943 48.71L95.5481 49.3237C95.5481 49.3237 91.3829 35.2113 93.8341 29.2871Z" fill="#407BFF" fill-opacity="0.8"/>
  <path opacity="0.6" d="M93.8341 29.2871C96.1468 29.9289 98.5476 30.1943 100.945 30.073C104.908 29.8709 109.646 31.7945 109.646 31.7945L107.943 48.71L95.5481 49.3237C95.5481 49.3237 91.3829 35.2113 93.8341 29.2871Z" fill="white" fill-opacity="0.8"/>
  <path d="M95.8252 19.7366C95.8252 19.7366 96.5213 11.5034 103.389 14.4973C111.996 18.2396 105.155 28.2467 100.945 26.1922C96.7346 24.1376 95.8252 19.7366 95.8252 19.7366Z" fill="#263238" fill-opacity="0.8"/>
  <path opacity="0.2" d="M97.752 30.5334L97.9466 35.1739L99.4884 32.9884C99.4884 32.9884 98.9383 38.1229 99.2601 40.9184C99.2601 40.9184 99.552 35.9074 100.252 32.9884L101.887 35.1739L104.234 30.5596C104.234 30.5596 100.435 29.1973 97.752 30.5334Z" fill="black" fill-opacity="0.8"/>
  <path d="M99.8775 31.3973L103.425 30.3944C101.24 28.8974 102.344 25.5293 102.344 25.5293L98.8259 26.7643C98.986 27.2537 99.1111 27.754 99.2002 28.2612C99.5744 30.4542 98.5752 30.6301 98.5752 30.6301L99.8775 31.3973Z" fill="#B97964" fill-opacity="0.8"/>
  <path opacity="0.2" d="M98.8193 26.7571C98.9794 27.2466 99.1045 27.7468 99.1936 28.2541C100.874 27.5767 102.333 25.5146 102.333 25.5146L98.8193 26.7571Z" fill="black" fill-opacity="0.8"/>
  <path d="M101.121 16.2335C98.0073 15.5449 96.6301 16.9819 95.6982 20.148C94.5231 24.0962 94.7813 27.1425 98.868 27.15C104.433 27.1537 106.304 17.3786 101.121 16.2335Z" fill="#B97964" fill-opacity="0.8"/>
  <path d="M97.7485 20.4209C97.3948 20.8296 96.9941 21.1951 96.5547 21.5099C96.6186 21.659 96.7221 21.7878 96.8541 21.8821C96.9861 21.9765 97.1414 22.0329 97.3032 22.0451L97.7485 20.4209Z" fill="#A24E3F" fill-opacity="0.8"/>
  <path d="M99.7094 20.5857C99.6496 20.8402 99.7356 21.0797 99.904 21.1246C100.072 21.1695 100.278 20.9936 100.327 20.7504C100.376 20.5071 100.301 20.2527 100.132 20.2115C99.9639 20.1703 99.7731 20.3312 99.7094 20.5857Z" fill="#263238" fill-opacity="0.8"/>
  <path d="M100.2 20.2307L99.6982 19.8789C99.6982 19.8789 99.8592 20.4103 100.2 20.2307Z" fill="#263238" fill-opacity="0.8"/>
  <path d="M96.5737 19.7594C96.5138 20.0139 96.5999 20.2534 96.7683 20.2945C96.9367 20.3357 97.1425 20.1673 97.1912 19.9203C97.2398 19.6733 97.165 19.4226 96.9966 19.3814C96.8282 19.3402 96.6224 19.5012 96.5737 19.7594Z" fill="#263238" fill-opacity="0.8"/>
  <path d="M97.0493 19.385L96.5479 19.0332C96.5479 19.0332 96.7088 19.5796 97.0493 19.385Z" fill="#263238" fill-opacity="0.8"/>
  <path d="M100.219 18.4414C100.472 18.4664 100.715 18.5488 100.931 18.6824C101.147 18.8161 101.33 18.9973 101.465 19.2123" stroke="#263238" stroke-opacity="0.8" stroke-width="0.72468" stroke-linecap="round" stroke-linejoin="round"/>
  <path d="M97.9832 17.8093C97.7806 17.7118 97.5587 17.6611 97.3339 17.6611C97.1091 17.6611 96.8871 17.7118 96.6846 17.8093" stroke="#263238" stroke-opacity="0.8" stroke-width="0.72468" stroke-linecap="round" stroke-linejoin="round"/>
  <path d="M103.362 22.2368C103.362 22.2368 102.475 19.3552 103.13 17.4279C103.13 17.4279 97.5167 13.5396 95.8252 19.7369C95.8252 19.7369 96.4539 14.041 101.835 15.1039C107.217 16.1667 105.462 23.992 102.18 25.7135C102.187 25.7135 103.909 24.0369 103.362 22.2368Z" fill="#263238" fill-opacity="0.8"/>
  <path d="M102.712 22.7793C102.822 22.4262 103.067 22.1309 103.394 21.9583C103.721 21.7857 104.103 21.7499 104.456 21.8587C105.399 22.1768 105.422 24.2613 102.914 24.2051C102.562 24.1976 102.435 23.8159 102.712 22.7793Z" fill="#B97964" fill-opacity="0.8"/>
  <path d="M96.7432 23.2276C96.8239 23.6089 96.8776 23.9953 96.9041 24.384H97.1099C98.038 24.4664 98.4983 24.1932 98.7229 23.8713C98.8287 23.7106 98.8953 23.5273 98.9175 23.3362C98.9312 23.2268 98.9312 23.1162 98.9175 23.0068C98.3174 23.2163 97.6789 23.2929 97.0463 23.2314C96.8667 23.2426 96.7432 23.2276 96.7432 23.2276Z" fill="#263238" fill-opacity="0.8"/>
  <path d="M97.0605 23.2509L97.1167 23.5915C97.9924 23.6626 98.6136 23.5915 98.9168 23.3557C98.9305 23.2463 98.9305 23.1357 98.9168 23.0264C98.3213 23.2336 97.6882 23.3102 97.0605 23.2509Z" fill="white" fill-opacity="0.8"/>
  <path d="M97.1094 24.4028C98.0375 24.4852 98.4978 24.212 98.7223 23.8901C98.3677 23.8672 98.0118 23.9065 97.6707 24.0061C97.4467 24.0764 97.2504 24.2152 97.1094 24.4028Z" fill="#DE5753" fill-opacity="0.8"/>
  <path d="M101.132 16.4804C101.132 16.4804 101.256 21.8844 104.501 22.5318C107.745 23.1792 104.197 15.5897 104.197 15.5897C104.197 15.5897 99.3697 12.4387 96.1551 14.6579C92.9404 16.8771 95.8295 19.7363 95.8295 19.7363C95.8295 19.7363 96.5068 15.7245 101.132 16.4804Z" fill="#263238" fill-opacity="0.8"/>
  <path d="M101.243 16.125C101.243 16.125 100.09 19.538 102.366 21.3344" stroke="#263238" stroke-opacity="0.8" stroke-width="0.5" stroke-linecap="round" stroke-linejoin="round"/>
  <path d="M103.824 21.7943L100.83 21.0458C100.853 20.9451 100.864 20.8422 100.864 20.7389C100.845 20.4004 100.711 20.0785 100.485 19.8259C100.259 19.5732 99.9535 19.4049 99.6191 19.3484C99.2848 19.2919 98.9412 19.3505 98.6445 19.5148C98.3479 19.679 98.1158 19.9391 97.9862 20.2524C97.9505 20.1945 97.9032 20.1445 97.8471 20.1059C97.791 20.0672 97.7275 20.0407 97.6607 20.0279C97.5986 20.0199 97.5356 20.0277 97.4773 20.0503C97.4938 19.9728 97.5026 19.8938 97.5035 19.8146C97.5094 19.4396 97.3744 19.0761 97.1251 18.7959C96.8758 18.5157 96.5305 18.3393 96.1574 18.3015C95.7843 18.2638 95.4106 18.3675 95.1102 18.5921C94.8099 18.8167 94.6048 19.1458 94.5355 19.5144C94.4663 19.8829 94.5378 20.2641 94.7361 20.5824C94.9344 20.9007 95.2449 21.133 95.6063 21.2333C95.9676 21.3336 96.3535 21.2946 96.6875 21.1241C97.0215 20.9535 97.2793 20.6638 97.4099 20.3123C97.4388 20.2807 97.4741 20.2557 97.5135 20.2389C97.5529 20.2221 97.5954 20.214 97.6382 20.215C97.7355 20.215 97.8328 20.3273 97.9226 20.5032C97.9063 20.5807 97.8975 20.6597 97.8964 20.7389C97.9158 21.0775 98.0495 21.3994 98.2757 21.652C98.5018 21.9046 98.8071 22.073 99.1414 22.1295C99.4757 22.186 99.8194 22.1274 100.116 21.9631C100.413 21.7989 100.645 21.5388 100.774 21.2254L103.768 21.9739H103.791C103.803 21.9754 103.815 21.9744 103.827 21.9711C103.839 21.9678 103.85 21.9621 103.86 21.9545C103.87 21.9468 103.878 21.9373 103.884 21.9265C103.89 21.9157 103.894 21.9039 103.895 21.8916C103.897 21.8793 103.896 21.8668 103.893 21.8549C103.889 21.843 103.884 21.8319 103.876 21.8221C103.868 21.8124 103.859 21.8043 103.848 21.7982C103.837 21.7922 103.825 21.7883 103.813 21.7868L103.824 21.7943ZM96.0215 21.1281C95.7647 21.1281 95.5136 21.052 95.3 20.9093C95.0865 20.7666 94.92 20.5638 94.8218 20.3265C94.7235 20.0892 94.6977 19.8281 94.7478 19.5762C94.798 19.3243 94.9216 19.0929 95.1033 18.9113C95.2849 18.7297 95.5163 18.606 95.7682 18.5559C96.0201 18.5058 96.2812 18.5315 96.5184 18.6298C96.7557 18.7281 96.9586 18.8945 97.1012 19.1081C97.2439 19.3216 97.3201 19.5727 97.3201 19.8295C97.3201 20.174 97.1833 20.5043 96.9397 20.7478C96.6962 20.9913 96.3659 21.1281 96.0215 21.1281ZM99.3896 22.0488C99.1335 22.0488 98.8832 21.9728 98.6702 21.8305C98.4573 21.6883 98.2913 21.486 98.1933 21.2494C98.0953 21.0128 98.0697 20.7525 98.1197 20.5013C98.1696 20.2501 98.2929 20.0194 98.474 19.8383C98.6551 19.6572 98.8858 19.5339 99.137 19.4839C99.3882 19.434 99.6485 19.4596 99.8851 19.5576C100.122 19.6556 100.324 19.8216 100.466 20.0345C100.609 20.2475 100.684 20.4978 100.684 20.7539C100.683 21.0977 100.546 21.427 100.303 21.6697C100.059 21.9125 99.7297 22.0488 99.3859 22.0488H99.3896Z" fill="#263238" fill-opacity="0.8"/>
  <g opacity="0.8">
    <path d="M103.822 21.7943L100.828 21.0458C100.851 20.9451 100.862 20.8422 100.862 20.7389C100.843 20.4004 100.709 20.0785 100.483 19.8259C100.257 19.5732 99.9515 19.4049 99.6172 19.3484C99.2828 19.2919 98.9392 19.3505 98.6426 19.5148C98.3459 19.679 98.1138 19.9391 97.9843 20.2524C97.9486 20.1945 97.9012 20.1445 97.8451 20.1059C97.7891 20.0672 97.7256 20.0407 97.6587 20.0279C97.5967 20.0199 97.5336 20.0277 97.4753 20.0503C97.4918 19.9728 97.5006 19.8938 97.5015 19.8146C97.5075 19.4396 97.3724 19.0761 97.1232 18.7959C96.8739 18.5157 96.5285 18.3393 96.1554 18.3015C95.7823 18.2638 95.4086 18.3675 95.1083 18.5921C94.808 18.8167 94.6029 19.1458 94.5336 19.5144C94.4643 19.8829 94.5359 20.2641 94.7342 20.5824C94.9324 20.9007 95.243 21.133 95.6043 21.2333C95.9657 21.3336 96.3515 21.2946 96.6855 21.1241C97.0195 20.9535 97.2773 20.6638 97.408 20.3123C97.4368 20.2807 97.4722 20.2557 97.5116 20.2389C97.5509 20.2221 97.5934 20.214 97.6362 20.215C97.7335 20.215 97.8309 20.3273 97.9207 20.5032C97.9044 20.5807 97.8956 20.6597 97.8945 20.7389C97.9138 21.0775 98.0475 21.3994 98.2737 21.652C98.4999 21.9046 98.8051 22.073 99.1395 22.1295C99.4738 22.186 99.8174 22.1274 100.114 21.9631C100.411 21.7989 100.643 21.5388 100.772 21.2254L103.766 21.9739H103.789C103.801 21.9754 103.813 21.9744 103.825 21.9711C103.837 21.9678 103.848 21.9621 103.858 21.9545C103.868 21.9468 103.876 21.9373 103.882 21.9265C103.888 21.9157 103.892 21.9039 103.893 21.8916C103.895 21.8793 103.894 21.8668 103.891 21.8549C103.887 21.843 103.882 21.8319 103.874 21.8221C103.866 21.8124 103.857 21.8043 103.846 21.7982C103.835 21.7922 103.823 21.7883 103.811 21.7868L103.822 21.7943ZM96.0195 21.1281C95.7627 21.1281 95.5116 21.052 95.2981 20.9093C95.0845 20.7666 94.9181 20.5638 94.8198 20.3265C94.7215 20.0892 94.6958 19.8281 94.7459 19.5762C94.796 19.3243 94.9197 19.0929 95.1013 18.9113C95.2829 18.7297 95.5143 18.606 95.7662 18.5559C96.0181 18.5058 96.2792 18.5315 96.5165 18.6298C96.7538 18.7281 96.9566 18.8945 97.0993 19.1081C97.242 19.3216 97.3181 19.5727 97.3181 19.8295C97.3181 20.174 97.1813 20.5043 96.9378 20.7478C96.6943 20.9913 96.364 21.1281 96.0195 21.1281ZM99.3877 22.0488C99.1316 22.0488 98.8812 21.9728 98.6683 21.8305C98.4553 21.6883 98.2894 21.486 98.1914 21.2494C98.0934 21.0128 98.0677 20.7525 98.1177 20.5013C98.1677 20.2501 98.291 20.0194 98.4721 19.8383C98.6532 19.6572 98.8839 19.5339 99.1351 19.4839C99.3862 19.434 99.6466 19.4596 99.8832 19.5576C100.12 19.6556 100.322 19.8216 100.464 20.0345C100.607 20.2475 100.683 20.4978 100.683 20.7539C100.682 21.0977 100.544 21.427 100.301 21.6697C100.057 21.9125 99.7277 22.0488 99.3839 22.0488H99.3877Z" fill="white" fill-opacity="0.8"/>
  </g>
  <path d="M102.476 29.1074L100.253 31.2892L101.14 33.965L104.235 30.5595L102.476 29.1074Z" fill="#407BFF" fill-opacity="0.8"/>
  <path d="M99.2609 29.5635L99.6202 31.2438L98.4676 33.6202L97.749 30.5327L99.2609 29.5635Z" fill="#407BFF" fill-opacity="0.8"/>
  <path d="M97.1094 29.9345C97.1094 29.9345 96.2374 33.9052 99.3286 34.7996C102.42 35.694 105.275 30.2713 105.275 30.2713C105.275 30.2713 108.643 31.061 110.017 31.9479C110.017 31.9479 109.235 45.2857 107.947 48.71L95.6162 49.7616C95.6162 49.7616 89.8417 35.709 93.8348 29.2871L97.1094 29.9345Z" fill="#263238" fill-opacity="0.8"/>
  <path opacity="0.1" d="M110.017 31.9479C110.017 31.9479 109.77 36.1469 109.324 40.4356C109.116 42.7388 108.789 45.0297 108.344 47.2991C108.243 47.7777 108.111 48.249 107.947 48.71L95.6162 49.7616C95.6162 49.7616 89.8417 35.709 93.8348 29.2871L97.1094 29.9345C97.1094 29.9345 96.2374 33.9052 99.3286 34.7996C102.42 35.694 105.275 30.2713 105.275 30.2713C105.275 30.2713 108.636 31.061 110.017 31.9479Z" fill="white" fill-opacity="0.8"/>
  <path opacity="0.2" d="M109.324 40.4358C109.115 42.739 108.788 45.0299 108.343 47.2993C106.936 43.5569 108.317 39.1035 108.317 39.1035L109.324 40.4358Z" fill="black" fill-opacity="0.8"/>
  <path d="M110.017 31.9473C113.276 33.8184 115.593 47.9197 115.956 49.0124C116.184 49.6973 120.383 63.0463 120.383 63.0463L117.015 64.6069C117.015 64.6069 110.993 53.754 110.005 50.8986C109.386 49.063 108.892 47.1875 108.527 45.2851C108.527 45.2851 107.659 39.4919 108.153 37.0518C108.573 35.2835 109.199 33.5703 110.017 31.9473Z" fill="#263238" fill-opacity="0.8"/>
  <path opacity="0.1" d="M110.017 31.9473C113.276 33.8184 115.593 47.9197 115.956 49.0124C116.184 49.6973 120.383 63.0463 120.383 63.0463L117.015 64.6069C117.015 64.6069 110.993 53.754 110.005 50.8986C109.386 49.063 108.892 47.1875 108.527 45.2851C108.527 45.2851 107.659 39.4919 108.153 37.0518C108.573 35.2835 109.199 33.5703 110.017 31.9473Z" fill="white" fill-opacity="0.8"/>
  <path opacity="0.6" d="M102.476 29.1074L100.253 31.2892L101.14 33.965L104.235 30.5595L102.476 29.1074Z" fill="white" fill-opacity="0.8"/>
  <path opacity="0.6" d="M99.2609 29.5635L99.6202 31.2438L98.4676 33.6202L97.749 30.5327L99.2609 29.5635Z" fill="white" fill-opacity="0.8"/>
</svg>