<svg xmlns="http://www.w3.org/2000/svg" width="7" height="28" viewBox="0 0 7 28" fill="none">
  <path d="M6.226 3.11159C6.22613 3.52039 6.14574 3.92522 5.98942 4.30296C5.8331 4.68069 5.60391 5.02394 5.31493 5.3131C5.02595 5.60226 4.68285 5.83168 4.30522 5.98824C3.92758 6.14481 3.52281 6.22545 3.114 6.22559C2.7052 6.22572 2.30037 6.14533 1.92263 5.98901C1.54489 5.83268 1.20165 5.60349 0.912483 5.31452C0.623322 5.02554 0.393911 4.68244 0.237347 4.3048C0.0807826 3.92717 0.000131474 3.52239 1.60828e-07 3.11359C-0.000265038 2.28797 0.327457 1.49606 0.91107 0.912069C1.49468 0.328081 2.28638 -0.000148773 3.112 -0.000413895C3.93762 -0.000679016 4.72953 0.327041 5.31352 0.910654C5.8975 1.49427 6.22573 2.28597 6.226 3.11159Z" fill="#4E4E4E"/>
  <path d="M6.22595 13.7962C6.22595 12.0775 4.83266 10.6842 3.11395 10.6842C1.39524 10.6842 0.00195313 12.0775 0.00195313 13.7962C0.00195313 15.5149 1.39524 16.9082 3.11395 16.9082C4.83266 16.9082 6.22595 15.5149 6.22595 13.7962Z" fill="#4E4E4E"/>
  <path d="M6.22595 24.4818C6.22595 22.763 4.83266 21.3698 3.11395 21.3698C1.39524 21.3698 0.00195313 22.763 0.00195313 24.4818C0.00195313 26.2005 1.39524 27.5938 3.11395 27.5938C4.83266 27.5938 6.22595 26.2005 6.22595 24.4818Z" fill="#4E4E4E"/>
</svg>