<svg xmlns="http://www.w3.org/2000/svg" width="91" height="91" viewBox="0 0 91 91" fill="none">
  <g clip-path="url(#clip0_2521_4093)">
    <rect width="91" height="91" rx="45.5" fill="#FFB573"/>
    <path d="M79.9918 90.1128C72.7112 87.6596 54.5183 78.2422 54.5183 78.2422H36.4309C36.4309 78.2422 18.2469 87.6596 10.9574 90.1128C3.67676 92.5661 3.67676 105 3.67676 105H87.2813C87.2813 105 87.2813 92.5661 80.0006 90.1128H79.9918Z" fill="#424777"/>
    <path fill-rule="evenodd" clip-rule="evenodd" d="M36.2729 79.6129L37.46 69.6416H53.4018L54.6329 79.0854L52.9437 79.1339L48.741 81.9877L46.7186 101.895L43.3772 82.2339L40.1636 79.5011L36.2729 79.6129Z" fill="#C1735C"/>
    <path d="M36.7734 75.3925C36.7734 75.3925 49.1277 76.5268 53.4803 71.1103V64.8848L37.8198 66.3884L36.7734 75.3925Z" fill="#A5503C"/>
    <path d="M36.6419 76.501L30.689 81.1525L38.717 88.9871L43.3774 82.2341L36.6419 76.501Z" fill="#515882"/>
    <path d="M48.7412 81.9878L54.3072 76.5801L59.7325 80.8711L52.5486 88.7321L48.7412 81.9878Z" fill="#515882"/>
    <path d="M41.8121 18.59C40.6602 15.741 35.2261 14 35.2261 14C36.5714 22.9074 41.689 20.9905 41.689 20.9905C41.7945 20.7795 41.8648 20.5684 41.9264 20.3662C45.936 22.5996 49.2774 14.4045 49.2774 14.4045C43.6938 14.809 42.1638 16.9896 41.8121 18.59Z" fill="#FF7C59"/>
    <path fill-rule="evenodd" clip-rule="evenodd" d="M46.2177 72.1392C54.2933 72.1392 61.1292 65.3536 63.4269 55.9991C64.1823 55.8499 64.5158 55.6868 64.5158 55.6868C66.3623 54.702 67.356 52.4246 67.0746 49.4613C66.8634 47.2376 65.0578 46.8956 64.1697 46.8633C63.2958 35.1719 55.592 26.0283 46.2177 26.0283C36.844 26.0283 29.1406 35.1707 28.2658 46.861C27.4966 46.8499 25.379 47.0416 25.1492 49.4613C24.8678 52.4246 25.8614 54.702 27.708 55.6868C27.708 55.6868 28.1037 55.8803 29.0094 56.0386L29.0071 55.9938C31.3036 65.3511 38.1405 72.1392 46.2177 72.1392Z" fill="#C1735C"/>
    <path d="M46.2173 24.6743C26.8725 24.4017 28.1827 47.0087 28.1827 47.0087L46.2173 48.3277L64.2519 47.0087C64.2519 47.0087 65.562 24.4017 46.2173 24.6743Z" fill="#C1735C"/>
    <path d="M33.8543 44.4593C36.8264 43.923 39.4555 44.345 40.7921 44.6C41.1965 44.6792 41.601 44.4857 41.7241 44.1516C41.8648 43.7735 41.601 43.3866 41.1438 43.2986C39.6226 43.0085 36.8879 42.5688 34.0214 43.5712C33.5817 43.7295 32.7992 44.1604 33.0366 44.5033C33.1685 44.6264 33.4586 44.5209 33.8543 44.4505V44.4593Z" fill="#441D39"/>
    <path d="M58.7656 44.4685C55.7935 43.9321 53.1644 44.3542 51.8279 44.6092C51.4234 44.6883 51.0189 44.4861 50.8958 44.152C50.7551 43.7738 51.0189 43.3782 51.4761 43.2902C52.9973 42.9913 55.732 42.5516 58.5985 43.5716C59.0382 43.7299 59.8208 44.1607 59.5834 44.5125C59.4515 44.6356 59.1613 44.5301 58.7656 44.4597V44.4685Z" fill="#441D39"/>
    <path d="M54.7383 50.9294C55.3259 50.9294 55.8022 50.1027 55.8022 49.0829C55.8022 48.0631 55.3259 47.2363 54.7383 47.2363C54.1507 47.2363 53.6743 48.0631 53.6743 49.0829C53.6743 50.1027 54.1507 50.9294 54.7383 50.9294Z" fill="#441D39"/>
    <path d="M38.7788 50.5525C39.3664 50.5525 39.8428 49.7257 39.8428 48.7059C39.8428 47.6861 39.3664 46.8594 38.7788 46.8594C38.1912 46.8594 37.7148 47.6861 37.7148 48.7059C37.7148 49.7257 38.1912 50.5525 38.7788 50.5525Z" fill="#441D39"/>
    <path d="M47.466 57.3844H45.7865C45.0391 57.3844 44.3796 57.0942 44.0279 56.6194C43.7729 56.2765 43.7025 55.872 43.8256 55.4763C44.2125 54.2101 44.5379 53.0142 44.5379 53.0054C44.5994 52.768 44.8368 52.6361 45.0743 52.6977C45.3117 52.7592 45.4524 53.0054 45.382 53.2341C45.382 53.2341 45.0567 54.4563 44.661 55.7313C44.6258 55.8544 44.6434 55.9775 44.7313 56.1006C44.916 56.3556 45.3293 56.5139 45.7865 56.5139H47.466C47.7122 56.5139 47.9056 56.7073 47.9056 56.9535C47.9056 57.1997 47.7122 57.3932 47.466 57.3932V57.3844Z" fill="#A5503C"/>
    <path d="M43.6329 63.1169C42.8151 63.1169 42.2788 63.0729 42.2172 63.0641C41.971 63.0465 41.7951 62.8267 41.8127 62.5893C41.8303 62.3519 42.0414 62.1672 42.2876 62.1848C42.3403 62.1848 47.2996 62.5893 50.9751 60.7779C51.1949 60.6724 51.4587 60.7603 51.5642 60.9801C51.6698 61.2 51.5818 61.4638 51.362 61.5693C48.6713 62.897 45.4443 63.1081 43.6241 63.1081L43.6329 63.1169Z" fill="#A5503C"/>
    <path d="M55.6176 53.8229C57.3124 53.8229 58.6864 53.508 58.6864 53.1195C58.6864 52.731 57.3124 52.416 55.6176 52.416C53.9228 52.416 52.5488 52.731 52.5488 53.1195C52.5488 53.508 53.9228 53.8229 55.6176 53.8229Z" fill="#AF5D4E"/>
    <path d="M37.7143 53.8229C39.4091 53.8229 40.7831 53.508 40.7831 53.1195C40.7831 52.731 39.4091 52.416 37.7143 52.416C36.0194 52.416 34.6455 52.731 34.6455 53.1195C34.6455 53.508 36.0194 53.8229 37.7143 53.8229Z" fill="#AF5D4E"/>
    <path d="M57.9824 33.1423C57.9824 33.1423 63.311 42.7531 64.2431 47.009C64.2431 47.009 67.1272 34.1975 60.3302 27.2686L57.9824 33.1335V33.1423Z" fill="#FF7C59"/>
    <path d="M28.1828 47.0102L30.0997 39.6943H27.7607L28.1828 47.0102Z" fill="#FF7C59"/>
    <path d="M57.3757 23.4792C57.3757 23.4792 57.3757 23.4353 57.3757 23.4177C57.3757 21.3689 55.7138 19.7158 53.6738 19.7158C53.2253 19.7158 52.8121 19.8037 52.4164 19.9532C51.326 18.8013 49.6202 18.0539 47.6857 18.0539C45.9007 18.0539 44.3004 18.6958 43.2012 19.707C42.0493 19.0124 40.6249 18.5903 39.0861 18.5903C38.4354 18.5903 37.8111 18.6694 37.2132 18.8013C36.3426 18.0451 35.2171 17.5879 33.9773 17.5879C32.0252 17.5879 30.3458 18.7222 29.5456 20.3665C29.062 19.962 28.4465 19.7158 27.7694 19.7158C26.2218 19.7158 24.9732 20.9732 24.9732 22.512C24.9732 22.6791 24.9908 22.8374 25.026 22.9956C21.9748 23.0396 19.5127 25.528 19.5127 28.588C19.5127 30.4434 20.4184 32.0877 21.8165 33.1077C21.2977 33.9518 20.9987 34.9454 20.9987 36.0182C20.9987 39.1133 23.5048 41.6194 26.5999 41.6194C29.6951 41.6194 32.2011 39.1133 32.2011 36.0182C32.2011 35.9566 32.2011 35.8951 32.1923 35.8335C32.9397 36.2028 33.7751 36.4139 34.6632 36.4139C37.6264 36.4139 40.0445 34.1101 40.2468 31.2084C41.258 32.2371 42.6649 32.8702 44.2212 32.8702C46.5338 32.8702 48.521 31.4634 49.374 29.4585C49.84 32.0877 52.1262 34.0837 54.8872 34.0837C57.9824 34.0837 60.4884 31.5777 60.4884 28.4825C60.4884 26.293 59.231 24.4025 57.3932 23.4792H57.3757Z" fill="#441D39"/>
  </g>
  <defs>
    <clipPath id="clip0_2521_4093">
      <rect width="91" height="91" rx="45.5" fill="white"/>
    </clipPath>
  </defs>
</svg>